{
  "asset": {
    "generator": "glTF-Transform v4.4.2",
    "version": "2.0"
  },
  "accessors": [
    {
      "type": "VEC3",
      "componentType": 5126,
      "count": 4,
      "max": [
        1,
        0,
        1
      ],
      "min": [
        -1,
        0,
        -1
      ],
      "bufferView": 0,
      "byteOffset": 0
    },
    {
      "type": "VEC3",
      "componentType": 5126,
      "count": 4,
      "bufferView": 0,
      "byteOffset": 12
    },
    {
      "type": "VEC2",
      "componentType": 5126,
      "count": 4,
      "bufferView": 0,
      "byteOffset": 24
    },
    {
      "type": "SCALAR",
      "componentType": 5123,
      "count": 6,
      "bufferView": 1,
      "byteOffset": 0
    },
    {
      "type": "SCALAR",
      "componentType": 5123,
      "count": 372,
      "bufferView": 1,
      "byteOffset": 12
    },
    {
      "type": "SCALAR",
      "componentType": 5125,
      "count": 5949534,
      "bufferView": 1,
      "byteOffset": 756
    },
    {
      "type": "VEC3",
      "componentType": 5126,
      "count": 192,
      "max": [
        1,
        1,
        1
      ],
      "min": [
        -1,
        -1,
        -1
      ],
      "bufferView": 2,
      "byteOffset": 0
    },
    {
      "type": "VEC3",
      "componentType": 5126,
      "count": 192,
      "bufferView": 2,
      "byteOffset": 12
    },
    {
      "type": "VEC2",
      "componentType": 5126,
      "count": 192,
      "bufferView": 2,
      "byteOffset": 24
    },
    {
      "type": "VEC3",
      "componentType": 5126,
      "count": 1088578,
      "max": [
        0.3282592296600342,
        0.5000006556510925,
        0.27133604884147644
      ],
      "min": [
        -0.3281722068786621,
        -0.5004008412361145,
        -0.27145639061927795
      ],
      "bufferView": 3,
      "byteOffset": 0
    },
    {
      "type": "VEC3",
      "componentType": 5126,
      "count": 1088578,
      "bufferView": 3,
      "byteOffset": 12
    },
    {
      "type": "VEC2",
      "componentType": 5126,
      "count": 1088578,
      "bufferView": 3,
      "byteOffset": 24
    },
    {
      "type": "SCALAR",
      "componentType": 5126,
      "count": 2,
      "max": [
        10.291666984558105
      ],
      "min": [
        0.0416666679084301
      ],
      "bufferView": 4,
      "byteOffset": 0
    },
    {
      "type": "VEC3",
      "componentType": 5126,
      "count": 2,
      "bufferView": 4,
      "byteOffset": 8
    },
    {
      "type": "SCALAR",
      "componentType": 5126,
      "count": 247,
      "max": [
        10.291666984558105
      ],
      "min": [
        0.0416666679084301
      ],
      "bufferView": 4,
      "byteOffset": 32
    },
    {
      "type": "VEC4",
      "componentType": 5126,
      "count": 247,
      "bufferView": 4,
      "byteOffset": 1020
    },
    {
      "type": "VEC3",
      "componentType": 5126,
      "count": 2,
      "bufferView": 4,
      "byteOffset": 4972
    },
    {
      "type": "SCALAR",
      "componentType": 5126,
      "count": 2,
      "max": [
        10.5
      ],
      "min": [
        0.0416666679084301
      ],
      "bufferView": 4,
      "byteOffset": 4996
    },
    {
      "type": "VEC3",
      "componentType": 5126,
      "count": 2,
      "bufferView": 4,
      "byteOffset": 5004
    },
    {
      "type": "SCALAR",
      "componentType": 5126,
      "count": 252,
      "max": [
        10.5
      ],
      "min": [
        0.0416666679084301
      ],
      "bufferView": 4,
      "byteOffset": 5028
    },
    {
      "type": "VEC4",
      "componentType": 5126,
      "count": 252,
      "bufferView": 4,
      "byteOffset": 6036
    },
    {
      "type": "VEC3",
      "componentType": 5126,
      "count": 2,
      "bufferView": 4,
      "byteOffset": 10068
    }
  ],
  "bufferViews": [
    {
      "buffer": 0,
      "byteOffset": 0,
      "byteLength": 128,
      "byteStride": 32,
      "target": 34962
    },
    {
      "buffer": 0,
      "byteOffset": 128,
      "byteLength": 23798892,
      "target": 34963
    },
    {
      "buffer": 0,
      "byteOffset": 23799020,
      "byteLength": 6144,
      "byteStride": 32,
      "target": 34962
    },
    {
      "buffer": 0,
      "byteOffset": 23805164,
      "byteLength": 34834496,
      "byteStride": 32,
      "target": 34962
    },
    {
      "buffer": 0,
      "byteOffset": 58639660,
      "byteLength": 10092
    }
  ],
  "samplers": [
    {
      "magFilter": 9729,
      "minFilter": 9987,
      "wrapS": 10497,
      "wrapT": 10497
    }
  ],
  "textures": [
    {
      "source": 0,
      "sampler": 0
    },
    {
      "source": 1,
      "sampler": 0
    }
  ],
  "images": [
    {
      "name": "Image_1",
      "mimeType": "image/jpeg",
      "uri": "baseColor_1.jpg"
    },
    {
      "name": "Image_0",
      "mimeType": "image/jpeg",
      "uri": "metallicRoughness_1.jpg"
    }
  ],
  "buffers": [
    {
      "uri": "final1.bin",
      "byteLength": 58649752
    }
  ],
  "materials": [
    {
      "name": "Material.001",
      "doubleSided": true,
      "pbrMetallicRoughness": {
        "baseColorFactor": [
          0.9599831104278564,
          0.4243457317352295,
          0.2900303900241852,
          1
        ],
        "roughnessFactor": 0.5,
        "metallicFactor": 0
      }
    },
    {
      "name": "Material.002",
      "doubleSided": true,
      "pbrMetallicRoughness": {
        "baseColorFactor": [
          0.887911319732666,
          0.6903447508811951,
          0.3969702124595642,
          1
        ],
        "roughnessFactor": 0.5,
        "metallicFactor": 0
      }
    },
    {
      "name": "pbr_material",
      "pbrMetallicRoughness": {
        "baseColorTexture": {
          "index": 0
        },
        "metallicRoughnessTexture": {
          "index": 1
        }
      }
    }
  ],
  "meshes": [
    {
      "name": "Plane",
      "primitives": [
        {
          "attributes": {
            "POSITION": 0,
            "NORMAL": 1,
            "TEXCOORD_0": 2
          },
          "mode": 4,
          "material": 0,
          "indices": 3
        }
      ]
    },
    {
      "name": "Cylinder",
      "primitives": [
        {
          "attributes": {
            "POSITION": 6,
            "NORMAL": 7,
            "TEXCOORD_0": 8
          },
          "mode": 4,
          "material": 1,
          "indices": 4
        }
      ]
    },
    {
      "name": "Mesh_0",
      "primitives": [
        {
          "attributes": {
            "POSITION": 9,
            "NORMAL": 10,
            "TEXCOORD_0": 11
          },
          "mode": 4,
          "material": 2,
          "indices": 5
        }
      ]
    }
  ],
  "nodes": [
    {
      "name": "Plane",
      "mesh": 0
    },
    {
      "name": "Cylinder",
      "scale": [
        0.6000000238418579,
        0.07999999821186066,
        0.5
      ],
      "mesh": 1
    },
    {
      "name": "geometry_0",
      "translation": [
        -0.02763051725924015,
        0.5698534250259399,
        -4.441825866699219
      ],
      "mesh": 2
    },
    {
      "name": "world",
      "children": [
        2
      ]
    },
    {
      "name": "Node_0",
      "translation": [
        -0.00003689536242745817,
        0.0001999826927203685,
        4.465140342712402
      ],
      "scale": [
        0.9995986223220825,
        0.9995986223220825,
        0.9995986223220825
      ],
      "children": [
        3
      ]
    }
  ],
  "animations": [
    {
      "name": "CylinderAction",
      "samplers": [
        {
          "input": 12,
          "output": 13,
          "interpolation": "STEP"
        },
        {
          "input": 14,
          "output": 15,
          "interpolation": "LINEAR"
        },
        {
          "input": 12,
          "output": 16,
          "interpolation": "STEP"
        }
      ],
      "channels": [
        {
          "sampler": 0,
          "target": {
            "node": 1,
            "path": "translation"
          }
        },
        {
          "sampler": 1,
          "target": {
            "node": 1,
            "path": "rotation"
          }
        },
        {
          "sampler": 2,
          "target": {
            "node": 1,
            "path": "scale"
          }
        }
      ]
    },
    {
      "name": "geometry_0Action",
      "samplers": [
        {
          "input": 17,
          "output": 18,
          "interpolation": "STEP"
        },
        {
          "input": 19,
          "output": 20,
          "interpolation": "LINEAR"
        },
        {
          "input": 17,
          "output": 21,
          "interpolation": "STEP"
        }
      ],
      "channels": [
        {
          "sampler": 0,
          "target": {
            "node": 2,
            "path": "translation"
          }
        },
        {
          "sampler": 1,
          "target": {
            "node": 2,
            "path": "rotation"
          }
        },
        {
          "sampler": 2,
          "target": {
            "node": 2,
            "path": "scale"
          }
        }
      ]
    }
  ],
  "scenes": [
    {
      "name": "Scene",
      "nodes": [
        0,
        1,
        4
      ]
    }
  ],
  "scene": 0
}